<mxfile host="65bd71144e">
    <diagram id="RWDFj3Er76yFHDI8lX23" name="Page-1">
        <mxGraphModel dx="758" dy="607" grid="0" gridSize="10" guides="1" tooltips="1" connect="1" arrows="1" fold="1" page="1" pageScale="1" pageWidth="827" pageHeight="1169" background="#333333" math="0" shadow="0">
            <root>
                <mxCell id="0"/>
                <mxCell id="1" parent="0"/>
                <mxCell id="113" value="" style="shape=table;startSize=0;container=1;collapsible=0;childLayout=tableLayout;" parent="1" vertex="1">
                    <mxGeometry x="70" y="270" width="630" height="370" as="geometry"/>
                </mxCell>
                <mxCell id="114" value="" style="shape=partialRectangle;collapsible=0;dropTarget=0;pointerEvents=0;fillColor=none;top=0;left=0;bottom=0;right=0;points=[[0,0.5],[1,0.5]];portConstraint=eastwest;" parent="113" vertex="1">
                    <mxGeometry width="630" height="33" as="geometry"/>
                </mxCell>
                <mxCell id="115" value="Empleado&amp;nbsp;" style="shape=partialRectangle;html=1;whiteSpace=wrap;connectable=0;overflow=hidden;fillColor=none;top=0;left=0;bottom=0;right=0;pointerEvents=1;" parent="114" vertex="1">
                    <mxGeometry width="210" height="33" as="geometry">
                        <mxRectangle width="210" height="33" as="alternateBounds"/>
                    </mxGeometry>
                </mxCell>
                <mxCell id="116" value="interfaz de usuario" style="shape=partialRectangle;html=1;whiteSpace=wrap;connectable=0;overflow=hidden;fillColor=none;top=0;left=0;bottom=0;right=0;pointerEvents=1;" parent="114" vertex="1">
                    <mxGeometry x="210" width="210" height="33" as="geometry">
                        <mxRectangle width="210" height="33" as="alternateBounds"/>
                    </mxGeometry>
                </mxCell>
                <mxCell id="117" value="logica de negocio" style="shape=partialRectangle;html=1;whiteSpace=wrap;connectable=0;overflow=hidden;fillColor=none;top=0;left=0;bottom=0;right=0;pointerEvents=1;" parent="114" vertex="1">
                    <mxGeometry x="420" width="210" height="33" as="geometry">
                        <mxRectangle width="210" height="33" as="alternateBounds"/>
                    </mxGeometry>
                </mxCell>
                <mxCell id="118" value="" style="shape=partialRectangle;collapsible=0;dropTarget=0;pointerEvents=0;fillColor=none;top=0;left=0;bottom=0;right=0;points=[[0,0.5],[1,0.5]];portConstraint=eastwest;" parent="113" vertex="1">
                    <mxGeometry y="33" width="630" height="337" as="geometry"/>
                </mxCell>
                <mxCell id="119" value="" style="shape=partialRectangle;html=1;whiteSpace=wrap;connectable=0;overflow=hidden;fillColor=none;top=0;left=0;bottom=0;right=0;pointerEvents=1;" parent="118" vertex="1">
                    <mxGeometry width="210" height="337" as="geometry">
                        <mxRectangle width="210" height="337" as="alternateBounds"/>
                    </mxGeometry>
                </mxCell>
                <mxCell id="120" value="" style="shape=partialRectangle;html=1;whiteSpace=wrap;connectable=0;overflow=hidden;fillColor=none;top=0;left=0;bottom=0;right=0;pointerEvents=1;" parent="118" vertex="1">
                    <mxGeometry x="210" width="210" height="337" as="geometry">
                        <mxRectangle width="210" height="337" as="alternateBounds"/>
                    </mxGeometry>
                </mxCell>
                <mxCell id="121" value="" style="shape=partialRectangle;html=1;whiteSpace=wrap;connectable=0;overflow=hidden;fillColor=none;top=0;left=0;bottom=0;right=0;pointerEvents=1;" parent="118" vertex="1">
                    <mxGeometry x="420" width="210" height="337" as="geometry">
                        <mxRectangle width="210" height="337" as="alternateBounds"/>
                    </mxGeometry>
                </mxCell>
                <mxCell id="122" value="Valida registro&amp;nbsp;" style="rounded=1;whiteSpace=wrap;html=1;fillColor=#FFFFFF;fontColor=#000000;" parent="1" vertex="1">
                    <mxGeometry x="330" y="315" width="110" height="40" as="geometry"/>
                </mxCell>
                <mxCell id="123" value="" style="edgeStyle=none;html=1;fontColor=#000000;entryX=1;entryY=0.5;entryDx=0;entryDy=0;" parent="1" source="124" target="128" edge="1">
                    <mxGeometry relative="1" as="geometry">
                        <Array as="points"/>
                    </mxGeometry>
                </mxCell>
                <mxCell id="124" value="Consulta datos" style="rounded=1;whiteSpace=wrap;html=1;fillColor=#FFFFFF;fontColor=#000000;" parent="1" vertex="1">
                    <mxGeometry x="549.58" y="564.5" width="110" height="40" as="geometry"/>
                </mxCell>
                <mxCell id="125" style="edgeStyle=none;html=1;entryX=0;entryY=0.5;entryDx=0;entryDy=0;strokeColor=#FFFFFF;exitX=1;exitY=0.5;exitDx=0;exitDy=0;" parent="1" source="126" target="130" edge="1">
                    <mxGeometry relative="1" as="geometry">
                        <Array as="points">
                            <mxPoint x="460" y="480"/>
                            <mxPoint x="460" y="390"/>
                        </Array>
                    </mxGeometry>
                </mxCell>
                <mxCell id="126" value="Registar" style="rounded=1;whiteSpace=wrap;html=1;fillColor=#FFFFFF;fontColor=#000000;" parent="1" vertex="1">
                    <mxGeometry x="330" y="460" width="110" height="40" as="geometry"/>
                </mxCell>
                <mxCell id="127" style="edgeStyle=none;html=1;entryX=1;entryY=0.5;entryDx=0;entryDy=0;fontColor=#000000;" parent="1" source="128" target="147" edge="1">
                    <mxGeometry relative="1" as="geometry">
                        <mxPoint x="150" y="547.5" as="targetPoint"/>
                    </mxGeometry>
                </mxCell>
                <mxCell id="128" value="Muestra datos" style="whiteSpace=wrap;html=1;fillColor=#FFFFFF;fontColor=#000000;rounded=1;" parent="1" vertex="1">
                    <mxGeometry x="320" y="559.5" width="120" height="45" as="geometry"/>
                </mxCell>
                <mxCell id="129" style="edgeStyle=none;html=1;fontColor=#000000;entryX=0.5;entryY=0;entryDx=0;entryDy=0;" parent="1" source="130" target="146" edge="1">
                    <mxGeometry relative="1" as="geometry">
                        <mxPoint x="605" y="390" as="targetPoint"/>
                    </mxGeometry>
                </mxCell>
                <mxCell id="130" value="criterio de aceptacion" style="rounded=1;whiteSpace=wrap;html=1;fillColor=#FFFFFF;fontColor=#000000;" parent="1" vertex="1">
                    <mxGeometry x="565" y="320" width="110" height="40" as="geometry"/>
                </mxCell>
                <mxCell id="131" style="edgeStyle=none;html=1;" parent="1" source="132" target="122" edge="1">
                    <mxGeometry relative="1" as="geometry"/>
                </mxCell>
                <mxCell id="132" value="&lt;span style=&quot;color: rgb(0 , 0 , 0)&quot;&gt;Ingresa Cliente&amp;nbsp;&lt;/span&gt;" style="html=1;align=center;verticalAlign=middle;rounded=1;absoluteArcSize=1;arcSize=10;dashed=0;fillColor=#FFFFFF;" parent="1" vertex="1">
                    <mxGeometry x="140" y="320" width="100" height="30" as="geometry"/>
                </mxCell>
                <mxCell id="133" value="" style="ellipse;html=1;fillColor=#FFFFFF;" parent="1" vertex="1">
                    <mxGeometry x="80" y="320" width="30" height="30" as="geometry"/>
                </mxCell>
                <mxCell id="134" value="" style="endArrow=open;html=1;rounded=0;align=center;verticalAlign=top;endFill=0;labelBackgroundColor=none;endSize=6;" parent="1" source="133" edge="1">
                    <mxGeometry relative="1" as="geometry">
                        <mxPoint x="140" y="335" as="targetPoint"/>
                    </mxGeometry>
                </mxCell>
                <mxCell id="135" style="edgeStyle=none;html=1;strokeColor=#009900;entryX=0;entryY=0.5;entryDx=0;entryDy=0;entryPerimeter=0;" parent="1" source="137" target="140" edge="1">
                    <mxGeometry relative="1" as="geometry">
                        <mxPoint x="570" y="480" as="targetPoint"/>
                        <Array as="points">
                            <mxPoint x="470" y="406"/>
                            <mxPoint x="470" y="450"/>
                            <mxPoint x="470" y="535"/>
                        </Array>
                    </mxGeometry>
                </mxCell>
                <mxCell id="136" value="SI" style="edgeLabel;html=1;align=center;verticalAlign=middle;resizable=0;points=[];" parent="135" vertex="1" connectable="0">
                    <mxGeometry x="-0.893" y="2" relative="1" as="geometry">
                        <mxPoint as="offset"/>
                    </mxGeometry>
                </mxCell>
                <mxCell id="137" value="&lt;font color=&quot;#000000&quot;&gt;Existe&lt;/font&gt;" style="rhombus;whiteSpace=wrap;html=1;fillColor=#ffffc0;strokeColor=#ff0000;" parent="1" vertex="1">
                    <mxGeometry x="345" y="385.5" width="80" height="40" as="geometry"/>
                </mxCell>
                <mxCell id="138" value="NO" style="edgeStyle=orthogonalEdgeStyle;html=1;align=left;verticalAlign=top;endArrow=open;endSize=8;strokeColor=#ff0000;entryX=0.5;entryY=0;entryDx=0;entryDy=0;" parent="1" source="137" target="126" edge="1">
                    <mxGeometry x="-1" relative="1" as="geometry">
                        <mxPoint x="330" y="520" as="targetPoint"/>
                    </mxGeometry>
                </mxCell>
                <mxCell id="139" value="" style="endArrow=classic;html=1;entryX=0.5;entryY=0;entryDx=0;entryDy=0;exitX=0.494;exitY=1.073;exitDx=0;exitDy=0;exitPerimeter=0;" parent="1" source="122" target="137" edge="1">
                    <mxGeometry width="50" height="50" relative="1" as="geometry">
                        <mxPoint x="300" y="420" as="sourcePoint"/>
                        <mxPoint x="350" y="370" as="targetPoint"/>
                    </mxGeometry>
                </mxCell>
                <mxCell id="140" value="" style="shape=line;html=1;strokeWidth=6;strokeColor=#ff0000;" parent="1" vertex="1">
                    <mxGeometry x="569.16" y="530" width="70.84" height="10" as="geometry"/>
                </mxCell>
                <mxCell id="141" value="" style="edgeStyle=orthogonalEdgeStyle;html=1;verticalAlign=bottom;endArrow=open;endSize=8;strokeColor=#ff0000;entryX=0.5;entryY=0;entryDx=0;entryDy=0;" parent="1" source="140" target="124" edge="1">
                    <mxGeometry relative="1" as="geometry">
                        <mxPoint x="610" y="522" as="targetPoint"/>
                    </mxGeometry>
                </mxCell>
                <mxCell id="142" style="edgeStyle=none;html=1;entryX=1;entryY=0.75;entryDx=0;entryDy=0;strokeColor=#FFFFFF;" parent="1" source="146" target="122" edge="1">
                    <mxGeometry relative="1" as="geometry">
                        <Array as="points">
                            <mxPoint x="510" y="406"/>
                            <mxPoint x="480" y="345"/>
                        </Array>
                    </mxGeometry>
                </mxCell>
                <mxCell id="143" value="NO" style="edgeLabel;html=1;align=center;verticalAlign=middle;resizable=0;points=[];" parent="142" vertex="1" connectable="0">
                    <mxGeometry x="-0.5307" y="2" relative="1" as="geometry">
                        <mxPoint as="offset"/>
                    </mxGeometry>
                </mxCell>
                <mxCell id="144" style="edgeStyle=none;html=1;strokeColor=#009900;entryX=0.5;entryY=0;entryDx=0;entryDy=0;" parent="1" source="146" target="152" edge="1">
                    <mxGeometry relative="1" as="geometry">
                        <mxPoint x="620" y="470" as="targetPoint"/>
                    </mxGeometry>
                </mxCell>
                <mxCell id="145" value="SI" style="edgeLabel;html=1;align=center;verticalAlign=middle;resizable=0;points=[];" parent="144" vertex="1" connectable="0">
                    <mxGeometry x="-0.2342" y="-2" relative="1" as="geometry">
                        <mxPoint as="offset"/>
                    </mxGeometry>
                </mxCell>
                <mxCell id="146" value="&lt;font color=&quot;#000000&quot;&gt;Aceptado&lt;/font&gt;" style="rhombus;whiteSpace=wrap;html=1;fillColor=#ffffc0;strokeColor=#ff0000;" parent="1" vertex="1">
                    <mxGeometry x="580" y="385.5" width="80" height="40" as="geometry"/>
                </mxCell>
                <mxCell id="147" value="" style="ellipse;html=1;shape=endState;fillColor=#000000;strokeColor=#ff0000;" parent="1" vertex="1">
                    <mxGeometry x="140" y="567" width="30" height="30" as="geometry"/>
                </mxCell>
                <mxCell id="148" value="Text" style="text;html=1;resizable=0;autosize=1;align=center;verticalAlign=middle;points=[];fillColor=none;strokeColor=none;rounded=0;" parent="1" vertex="1">
                    <mxGeometry x="400" y="460" width="40" height="20" as="geometry"/>
                </mxCell>
                <mxCell id="150" value="" style="edgeStyle=none;html=1;" parent="1" source="149" target="114" edge="1">
                    <mxGeometry relative="1" as="geometry"/>
                </mxCell>
                <mxCell id="149" value="&amp;nbsp;DAE1.1. MUESTRA y REGISTRO DATOS EMPLEADO -&amp;gt;CLIENTE&amp;nbsp;" style="text;html=1;resizable=0;autosize=1;align=center;verticalAlign=middle;points=[];rounded=0;fillColor=#008a00;fontColor=#ffffff;strokeColor=#005700;" parent="1" vertex="1">
                    <mxGeometry x="197" y="221" width="376" height="18" as="geometry"/>
                </mxCell>
                <mxCell id="153" style="edgeStyle=none;html=1;" parent="1" source="152" edge="1">
                    <mxGeometry relative="1" as="geometry">
                        <mxPoint x="620" y="535" as="targetPoint"/>
                    </mxGeometry>
                </mxCell>
                <mxCell id="152" value="Almacena datos" style="rounded=1;whiteSpace=wrap;html=1;fillColor=#FFFFFF;fontColor=#000000;" parent="1" vertex="1">
                    <mxGeometry x="565" y="460" width="110" height="40" as="geometry"/>
                </mxCell>
            </root>
        </mxGraphModel>
    </diagram>
</mxfile>